<svg width="17" height="25" viewBox="0 0 17 25" fill="none" xmlns="http://www.w3.org/2000/svg">
<path d="M16.9875 24.1606H0.661891V20.9411L8.36666 12.7785C9.4245 11.6295 10.2042 10.6268 10.7059 9.7704C11.2185 8.91403 11.4747 8.10102 11.4747 7.33138C11.4747 6.27989 11.2076 5.45604 10.6732 4.85983C10.1388 4.25279 9.37543 3.94926 8.38302 3.94926C7.31428 3.94926 6.4691 4.31783 5.84748 5.05495C5.23677 5.78124 4.93141 6.74059 4.93141 7.933H0.1875C0.1875 6.49127 0.531025 5.17419 1.21807 3.98178C1.91603 2.78937 2.89753 1.85712 4.16257 1.18503C5.42762 0.502108 6.8617 0.160645 8.46481 0.160645C10.9186 0.160645 12.8216 0.74601 14.1739 1.91674C15.5371 3.08747 16.2187 4.74059 16.2187 6.87609C16.2187 8.04682 15.9133 9.23924 15.3026 10.4533C14.6919 11.6674 13.6449 13.0821 12.1618 14.6972L6.74719 20.372H16.9875V24.1606Z" fill="#EC1630"/>
</svg>
