<svg width="19" height="19" viewBox="0 0 19 19" fill="none" xmlns="http://www.w3.org/2000/svg">
<path d="M17.134 1.77177C16.2523 0.890098 15.101 0.445574 13.9412 0.421307C12.7207 0.394599 11.4929 0.836632 10.5699 1.76083L2.34799 9.98271C1.14811 11.1875 0.487427 12.7857 0.487427 14.4835L0.487427 17.2038C0.487427 17.8754 1.03029 18.4183 1.70186 18.4183L4.42222 18.4183C6.12005 18.4183 7.71826 17.7576 8.9242 16.5565L17.1351 8.34553C18.9447 6.53487 18.9447 3.58375 17.134 1.77177ZM7.20826 14.8381C6.46379 15.5802 5.47279 15.9894 4.42232 15.9894L2.91634 15.9894L2.91634 14.4835C2.91634 13.433 3.32561 12.442 4.06642 11.6987L9.48655 6.27863L12.6271 9.4192L7.20826 14.8381ZM15.4168 6.6296L14.3444 7.70199L11.2038 4.56142L12.2761 3.48908C13.1433 2.62195 14.552 2.62439 15.4167 3.48908C16.2815 4.35493 16.2815 5.76369 15.4168 6.6296Z" fill="white" stroke="#EC1630" stroke-width="0.5"/>
</svg>
