<svg width="85" height="111" viewBox="0 0 85 111" fill="none" xmlns="http://www.w3.org/2000/svg">
<path d="M85 19.9524C85 9.27058 76.1376 0.580322 65.2441 0.580322C56.6176 0.580322 49.2658 6.03056 46.5792 13.6036H7.4707C3.35136 13.6036 0 16.8898 0 20.9292V103.255C0 107.294 3.35136 110.58 7.4707 110.58H69.3945C73.5139 110.58 76.8652 107.294 76.8652 103.255V35.6082C81.7921 32.0819 85 26.3781 85 19.9524ZM65.2441 5.46404C73.3914 5.46404 80.0195 11.9635 80.0195 19.9524C80.0195 27.9414 73.3914 34.4408 65.2441 34.4408C57.0969 34.4408 50.4688 27.9414 50.4688 19.9524C50.4688 11.9635 57.0969 5.46404 65.2441 5.46404ZM71.8848 103.255C71.8848 104.601 70.7676 105.697 69.3945 105.697H7.4707C6.09759 105.697 4.98047 104.601 4.98047 103.255V20.9292C4.98047 19.5827 6.09759 18.4873 7.4707 18.4873H45.5446C45.5075 18.9711 45.4883 19.4596 45.4883 19.9524C45.4883 30.6343 54.3507 39.3245 65.2441 39.3245C67.573 39.3245 69.8084 38.9262 71.8848 38.1973V103.255Z" fill="#C4C4C4"/>
<path d="M60.3605 24.9514C60.7363 25.6885 61.466 26.1899 62.3007 26.285C62.3968 26.2957 62.4926 26.3013 62.5881 26.3013C63.322 26.3013 64.0248 25.9828 64.5009 25.4227L71.1415 17.6087C72.0219 16.5727 71.8791 15.033 70.8226 14.1696C69.7663 13.3063 68.1959 13.4463 67.3154 14.4823L63.1123 19.4281L62.1589 17.5583C61.5438 16.352 60.0479 15.8628 58.8178 16.4663C57.5877 17.0692 57.0891 18.5361 57.7042 19.7423L60.3605 24.9514Z" fill="#C4C4C4"/>
<circle cx="65" cy="19.5803" r="17" fill="#ED1631"/>
<path d="M60.4999 15.8303H64.0356V9.15175C64.0356 8.28432 64.7381 7.58032 65.6071 7.58032C66.4761 7.58032 67.1785 8.28432 67.1785 9.15175V15.8303H70.7142C71.7655 15.8303 72.2888 17.1032 71.5471 17.8417L66.4399 22.9489C66.2105 23.1799 65.9088 23.2946 65.6071 23.2946C65.3053 23.2946 65.0036 23.1799 64.7742 22.9489L59.6671 17.8417C58.9253 17.1032 59.4486 15.8303 60.4999 15.8303Z" fill="white"/>
<path d="M73.4642 29.5802H57.7499C56.8809 29.5802 56.1785 28.8762 56.1785 28.0088C56.1785 27.1413 56.8809 26.4373 57.7499 26.4373H73.4642C74.3332 26.4373 75.0356 27.1413 75.0356 28.0088C75.0356 28.8762 74.3332 29.5802 73.4642 29.5802Z" fill="white"/>
<path d="M27.3182 23.0803H21.6818C20.9036 23.0803 20.2727 23.6516 20.2727 24.3564V34.5652C20.2727 35.27 20.9036 35.8413 21.6818 35.8413H27.3182C28.8746 35.8413 30.1364 34.6986 30.1364 33.2891V25.6325C30.1364 24.223 28.8746 23.0803 27.3182 23.0803ZM27.3182 33.2891H23.0909V25.6325H27.3182V33.2891Z" fill="#EC1630"/>
<path d="M40 25.6325V23.0803H32.9545C32.1763 23.0803 31.5454 23.6516 31.5454 24.3564V35.8413H34.3636V30.7369H40V28.1847H34.3636V25.6325H40Z" fill="#EC1630"/>
<path d="M16.0455 23.0803H10.4091C9.63083 23.0803 9 23.6516 9 24.3564V35.8413H11.8182V32.013H16.0455C17.6019 32.013 18.8636 30.8703 18.8636 29.4608V25.6325C18.8636 24.223 17.6019 23.0803 16.0455 23.0803ZM16.0455 29.4608H11.8182V25.6325H16.0455V29.4608Z" fill="#EC1630"/>
<path d="M20 65.0803H14.9858V46.7429L9 48.5042V44.6359L19.4621 41.0803H20V65.0803Z" fill="#EC1630"/>
</svg>
