<svg width="85" height="110" viewBox="0 0 85 110" fill="none" xmlns="http://www.w3.org/2000/svg">
<path d="M85 19.3721C85 8.69026 76.1376 0 65.2441 0C56.6176 0 49.2658 5.45023 46.5792 13.0233H7.4707C3.35136 13.0233 0 16.3095 0 20.3488V102.674C0 106.714 3.35136 110 7.4707 110H69.3945C73.5139 110 76.8652 106.714 76.8652 102.674V35.0278C81.7921 31.5016 85 25.7978 85 19.3721ZM65.2441 4.88372C73.3914 4.88372 80.0195 11.3831 80.0195 19.3721C80.0195 27.361 73.3914 33.8605 65.2441 33.8605C57.0969 33.8605 50.4688 27.361 50.4688 19.3721C50.4688 11.3831 57.0969 4.88372 65.2441 4.88372ZM71.8848 102.674C71.8848 104.021 70.7676 105.116 69.3945 105.116H7.4707C6.09759 105.116 4.98047 104.021 4.98047 102.674V20.3488C4.98047 19.0024 6.09759 17.907 7.4707 17.907H45.5446C45.5075 18.3908 45.4883 18.8793 45.4883 19.3721C45.4883 30.0539 54.3507 38.7442 65.2441 38.7442C67.573 38.7442 69.8084 38.3458 71.8848 37.617V102.674Z" fill="#C4C4C4"/>
<path d="M60.3605 24.3711C60.7363 25.1082 61.466 25.6096 62.3007 25.7047C62.3968 25.7154 62.4926 25.7209 62.5881 25.7209C63.322 25.7209 64.0248 25.4025 64.5009 24.8424L71.1415 17.0284C72.0219 15.9924 71.8791 14.4527 70.8226 13.5893C69.7663 12.726 68.1959 12.866 67.3154 13.902L63.1123 18.8477L62.1589 16.9779C61.5438 15.7717 60.0479 15.2825 58.8178 15.8859C57.5877 16.4889 57.0891 17.9558 57.7042 19.1619L60.3605 24.3711Z" fill="#C4C4C4"/>
<circle cx="65" cy="19" r="17" fill="#ED1631"/>
<path d="M60.4999 15.25H64.0356V8.57143C64.0356 7.704 64.7381 7 65.6071 7C66.4761 7 67.1785 7.704 67.1785 8.57143V15.25H70.7142C71.7655 15.25 72.2888 16.5229 71.5471 17.2614L66.4399 22.3686C66.2105 22.5996 65.9088 22.7143 65.6071 22.7143C65.3053 22.7143 65.0036 22.5996 64.7742 22.3686L59.6671 17.2614C58.9253 16.5229 59.4486 15.25 60.4999 15.25Z" fill="white"/>
<path d="M73.4642 28.9999H57.7499C56.8809 28.9999 56.1785 28.2959 56.1785 27.4284C56.1785 26.561 56.8809 25.857 57.7499 25.857H73.4642C74.3332 25.857 75.0356 26.561 75.0356 27.4284C75.0356 28.2959 74.3332 28.9999 73.4642 28.9999Z" fill="white"/>
<path d="M28.3182 22.5H22.6818C21.9036 22.5 21.2727 23.0713 21.2727 23.7761V33.9849C21.2727 34.6897 21.9036 35.261 22.6818 35.261H28.3182C29.8746 35.261 31.1364 34.1183 31.1364 32.7088V25.0522C31.1364 23.6427 29.8746 22.5 28.3182 22.5ZM28.3182 32.7088H24.0909V25.0522H28.3182V32.7088Z" fill="#EC1630"/>
<path d="M41 25.0522V22.5H33.9545C33.1763 22.5 32.5454 23.0713 32.5454 23.7761V35.261H35.3636V30.1566H41V27.6044H35.3636V25.0522H41Z" fill="#EC1630"/>
<path d="M17.0455 22.5H11.4091C10.6308 22.5 10 23.0713 10 23.7761V35.261H12.8182V31.4327H17.0455C18.6019 31.4327 19.8636 30.29 19.8636 28.8805V25.0522C19.8636 23.6427 18.6019 22.5 17.0455 22.5ZM17.0455 28.8805H12.8182V25.0522H17.0455V28.8805Z" fill="#EC1630"/>
<path d="M26.8 64.5H10.4744V61.2805L18.1792 53.1179C19.237 51.9688 20.0167 50.9661 20.5184 50.1098C21.031 49.2534 21.2872 48.4404 21.2872 47.6707C21.2872 46.6192 21.0201 45.7954 20.4857 45.1992C19.9513 44.5921 19.1879 44.2886 18.1955 44.2886C17.1268 44.2886 16.2816 44.6572 15.66 45.3943C15.0493 46.1206 14.7439 47.0799 14.7439 48.2724H10C10 46.8306 10.3435 45.5136 11.0306 44.3211C11.7285 43.1287 12.71 42.1965 13.9751 41.5244C15.2401 40.8415 16.6742 40.5 18.2773 40.5C20.7311 40.5 22.6341 41.0854 23.9864 42.2561C25.3496 43.4268 26.0312 45.0799 26.0312 47.2154C26.0312 48.3862 25.7258 49.5786 25.1151 50.7927C24.5044 52.0068 23.4574 53.4214 21.9743 55.0366L16.5597 60.7114H26.8V64.5Z" fill="#EC1630"/>
</svg>
