<svg width="86" height="111" viewBox="0 0 86 111" fill="none" xmlns="http://www.w3.org/2000/svg">
<path d="M85.5 19.9524C85.5 9.27058 76.6376 0.580322 65.7441 0.580322C57.1176 0.580322 49.7658 6.03056 47.0792 13.6036H7.9707C3.85136 13.6036 0.5 16.8898 0.5 20.9292V103.255C0.5 107.294 3.85136 110.58 7.9707 110.58H69.8945C74.0139 110.58 77.3652 107.294 77.3652 103.255V35.6082C82.2921 32.0819 85.5 26.3781 85.5 19.9524ZM65.7441 5.46404C73.8914 5.46404 80.5195 11.9635 80.5195 19.9524C80.5195 27.9414 73.8914 34.4408 65.7441 34.4408C57.5969 34.4408 50.9688 27.9414 50.9688 19.9524C50.9688 11.9635 57.5969 5.46404 65.7441 5.46404ZM72.3848 103.255C72.3848 104.601 71.2676 105.697 69.8945 105.697H7.9707C6.59759 105.697 5.48047 104.601 5.48047 103.255V20.9292C5.48047 19.5827 6.59759 18.4873 7.9707 18.4873H46.0446C46.0075 18.9711 45.9883 19.4596 45.9883 19.9524C45.9883 30.6343 54.8507 39.3245 65.7441 39.3245C68.073 39.3245 70.3084 38.9262 72.3848 38.1973V103.255Z" fill="#C4C4C4"/>
<path d="M60.8605 24.9514C61.2363 25.6885 61.966 26.1899 62.8007 26.285C62.8968 26.2957 62.9926 26.3013 63.0881 26.3013C63.822 26.3013 64.5248 25.9828 65.0009 25.4227L71.6415 17.6087C72.5219 16.5727 72.3791 15.033 71.3226 14.1696C70.2663 13.3063 68.6959 13.4463 67.8154 14.4823L63.6123 19.4281L62.6589 17.5583C62.0438 16.352 60.5479 15.8628 59.3178 16.4663C58.0877 17.0692 57.5891 18.5361 58.2042 19.7423L60.8605 24.9514Z" fill="#C4C4C4"/>
<circle cx="65.5" cy="19.5803" r="17" fill="#ED1631"/>
<path d="M67.7831 17.3162V17.5662H68.0331H73.25V21.4284H68.0331H67.7831V21.6784V27.3303H63.233V21.6784V21.4284H62.983H57.75V17.5662H62.983H63.233V17.3162V11.8303H67.7831V17.3162Z" fill="white" stroke="#ED1631" stroke-width="0.5"/>
<ellipse cx="65.8687" cy="20.21" rx="16.6187" ry="16.21" fill="#ED1631"/>
</svg>
